<svg width="605" height="605" viewBox="0 0 605 605" fill="none" xmlns="http://www.w3.org/2000/svg">
<style>
@media (prefers-color-scheme: dark) {
      /* dark theme styles */
      .background-fill {
        fill: #1c1b22;
      }
      .letter-fill {
        fill: hsl(240, 5%, 95%);
      }
      .underline-fill {
        stroke: hsl(232, 81%, 75%);
      }
    }
</style>
<rect width="605" height="605" fill="white" class="background-fill"/>
<path d="M120.151 477V73.9544H191.639V477H120.151ZM365.569 484.395C337.631 484.395 313.802 478.643 294.081 467.14C274.36 455.636 258.131 438.585 245.395 415.989L294.697 379.628C302.914 394.419 312.364 405.306 323.046 412.291C333.728 418.864 345.232 422.151 357.558 422.151C376.457 422.151 390.631 416.399 400.081 404.896C409.53 393.392 414.255 373.26 414.255 344.5V73.9544H485.743V350.663C485.743 374.903 481.635 397.295 473.418 417.837C465.201 437.969 452.259 454.198 434.592 466.523C416.926 478.438 393.918 484.395 365.569 484.395Z" fill="#080808" class="letter-fill"/>
<line x1="120" y1="520" x2="487" y2="520" stroke="#2647FF" stroke-width="30" class="underline-fill"/>
</svg>
